<svg width="98" height="52" viewBox="0 0 98 52" fill="none" xmlns="http://www.w3.org/2000/svg">
<path fill-rule="evenodd" clip-rule="evenodd" d="M34.3977 3.01504C33.7182 4.46711 32.8078 7.3737 32.3752 9.47368L31.5878 13.2923L32.7094 14.1124C35.7136 16.3092 38.0776 18.4506 40.0058 20.7207L42.1242 23.2148L42.8025 20.0991C43.1757 18.385 44.1225 15.4263 44.9066 13.5235C46.5419 9.55487 46.5817 9.72013 43.0899 5.95854C41.1737 3.89383 36.7178 0.375 36.0195 0.375C35.8071 0.375 35.0771 1.56298 34.3977 3.01504ZM59.4432 2.38599C56.7724 4.35639 54.0241 7.10428 52.6955 9.1325C51.9947 10.202 52.0049 10.3004 53.0604 12.653C54.214 15.2233 55.7698 20.7945 55.7698 22.3553C55.7698 23.957 56.4948 23.8405 57.8755 22.0174C59.043 20.4751 61.2963 18.3722 65.3794 15.0142L66.583 14.0247L65.8707 10.4004C65.2178 7.0764 63.0613 1.03153 62.3781 0.609151C62.2202 0.511554 60.8994 1.31119 59.4432 2.38599ZM12.7122 14.2818C12.7122 16.8418 13.8744 21.9825 15.1066 24.8723C16.1626 27.3479 16.2466 27.4307 17.709 27.4352C19.6605 27.441 24.1516 28.401 27.2345 29.4708C28.5685 29.9338 29.7327 30.2397 29.8217 30.1507C29.9106 30.0617 29.6839 29.2769 29.3177 28.4067C28.2671 25.9094 27.0709 20.4628 27.0676 18.1611L27.0647 16.0586L25.0509 15.1925C22.2755 13.9984 19.0138 13.1922 15.5975 12.8555L12.7122 12.5714V14.2818ZM78.2766 14.3248C76.5588 14.7476 74.2521 15.5198 73.1507 16.0414C71.3632 16.8878 71.1372 17.1441 71.0511 18.4214C70.8489 21.4342 69.9759 25.6801 69.0573 28.1209L68.1011 30.6617L70.8777 29.7173C73.5784 28.7987 77.8936 27.9359 80.7641 27.7412C81.8709 27.6657 82.3449 27.3606 82.9375 26.3416C84.0586 24.4146 85.2745 19.8505 85.5677 16.4703L85.8252 13.4973L83.6124 13.5268C82.3953 13.5432 79.994 13.9025 78.2766 14.3248ZM47.9555 18.3156C46.2508 23.7024 46.5149 33.3764 48.4955 38.1065L49.0942 39.5369L49.9623 36.6664C51.0105 33.2021 51.6933 27.913 51.4185 25.3894C50.8887 20.5263 49.6728 15.5477 49.0147 15.5477C48.9138 15.5477 48.4373 16.7935 47.9555 18.3156ZM32.2267 21.7943C33.7243 28.4096 36.008 32.6686 40.6291 37.4668L43.8018 40.7609L43.3959 38.5084C42.1234 31.4486 38.1293 24.3601 33.2437 20.4907L31.6448 19.2244L32.2267 21.7943ZM62.8046 23.5888C59.401 27.2827 56.9196 31.7607 55.7567 36.3067C55.313 38.0426 54.9496 39.6578 54.9496 39.8961C54.9496 40.6908 59.4912 35.8819 61.2918 33.1808C62.269 31.7147 63.5353 29.3626 64.1057 27.954C65.1723 25.3197 66.241 20.961 65.9031 20.6231C65.7985 20.5186 64.4043 21.8533 62.8046 23.5888ZM11.8921 32.2282C6.79776 33.052 0 35.4316 0 36.3904C0 37.0933 3.51514 41.5454 5.57329 43.4498C9.68959 47.2577 13.6743 49.4188 19.2734 50.8795C25 52.3734 33.3024 51.7722 38.5353 49.4848L40.3921 48.6733L36.9065 47.9442C27.9628 46.073 20.2473 41.3117 15.349 34.6402C14.2631 33.1611 13.2716 31.9756 13.1457 32.0063C13.0202 32.0371 12.4559 32.1367 11.8921 32.2282ZM21.7338 34.6185C25.8907 38.955 31.0658 41.8046 37.3165 43.198L39.982 43.7922L36.8577 40.8216C32.1648 36.36 26.7789 33.5293 21.1187 32.5492L19.4784 32.2651L21.7338 34.6185ZM76.2734 33.0184C72.9994 33.7253 69.8275 34.9691 66.7942 36.7353C64.0815 38.3149 57.9108 43.941 58.6284 44.1805C59.4477 44.4536 64.8217 43.0065 67.5335 41.782C70.7165 40.3455 73.3992 38.5183 76.2061 35.8753C77.9711 34.2137 79.6208 32.2027 79.0557 32.4016C78.9913 32.4246 77.7394 32.7018 76.2734 33.0184ZM83.5116 34.5906C77.9448 42.3319 70.4959 46.7308 59.0504 49.0354C58.0506 49.2367 58.06 49.2568 59.4248 49.8313C63.3676 51.4909 67.3473 52.1285 72.5827 51.9391C78.8449 51.7123 82.6808 50.5941 87.5504 47.5759C91.959 44.8432 98.0072 38.5359 98.0072 36.6705C98.0072 35.7556 90.8293 33.1767 86.7302 32.619C85.1322 32.4016 85.0493 32.4521 83.5116 34.5906Z" fill="url(#paint0_linear_107_3392)"/>
<defs>
<linearGradient id="paint0_linear_107_3392" x1="81.8753" y1="9.15127" x2="41.9225" y2="52.0172" gradientUnits="userSpaceOnUse">
<stop stop-color="#42A5FF"/>
<stop offset="1" stop-color="#6DDDD0"/>
</linearGradient>
</defs>
</svg>
