<svg width="555" height="226" viewBox="0 0 555 226" fill="none" xmlns="http://www.w3.org/2000/svg">
<path fill-rule="evenodd" clip-rule="evenodd" d="M218.11 20.4531C215.423 26.1961 211.822 37.6919 210.111 45.9975L206.997 61.1003L211.433 64.3441C223.315 73.0324 232.665 81.5018 240.291 90.4804L248.67 100.345L251.352 88.0217C252.828 81.2423 256.573 69.5405 259.674 62.0151C266.142 46.3186 266.299 46.9723 252.489 32.0949C244.91 23.9288 227.287 10.0115 224.525 10.0115C223.685 10.0115 220.798 14.7101 218.11 20.4531ZM317.168 17.9652C306.604 25.7582 295.735 36.6264 290.48 44.6481C287.708 48.8779 287.749 49.2672 291.923 58.5718C296.486 68.7377 302.639 90.7724 302.639 96.9452C302.639 103.28 305.506 102.82 310.967 95.6088C315.585 89.5089 324.497 81.192 340.646 67.9105L345.406 63.997L342.589 49.6629C340.007 36.5161 331.477 12.6081 328.775 10.9376C328.151 10.5516 322.927 13.7143 317.168 17.9652ZM132.343 65.0139C132.343 75.1392 136.939 95.4709 141.813 106.9C145.989 116.691 146.322 117.019 152.105 117.037C159.824 117.06 177.587 120.856 189.78 125.088C195.056 126.919 199.66 128.129 200.012 127.777C200.364 127.425 199.467 124.321 198.019 120.879C193.864 111.002 189.133 89.4603 189.12 80.3568L189.108 72.0414L181.143 68.6161C170.166 63.8932 157.266 60.7046 143.754 59.373L132.343 58.2491V65.0139ZM391.655 65.1842C384.861 66.8563 375.738 69.9103 371.382 71.9733C364.312 75.3209 363.418 76.3345 363.078 81.3866C362.278 93.3025 358.825 110.095 355.192 119.749L351.41 129.798L362.392 126.063C373.073 122.43 390.14 119.017 401.493 118.247C405.871 117.948 407.746 116.742 410.089 112.711C414.523 105.09 419.332 87.0388 420.492 73.6698L421.51 61.9113L412.759 62.028C407.945 62.0929 398.447 63.5137 391.655 65.1842ZM271.733 80.9682C264.991 102.273 266.035 140.534 273.869 159.243L276.237 164.9L279.67 153.547C283.816 139.845 286.516 118.926 285.429 108.945C283.334 89.7117 278.525 70.0206 275.922 70.0206C275.523 70.0206 273.638 74.9478 271.733 80.9682ZM209.524 94.7265C215.447 120.89 224.48 137.735 242.756 156.713L255.305 169.741L253.699 160.832C248.666 132.91 232.869 104.875 213.547 89.5706L207.223 84.5622L209.524 94.7265ZM330.462 101.824C317.001 116.434 307.187 134.144 302.587 152.124C300.832 158.99 299.395 165.378 299.395 166.321C299.395 169.464 317.357 150.444 324.479 139.761C328.344 133.963 333.352 124.66 335.608 119.089C339.827 108.67 344.053 91.4308 342.717 90.0944C342.303 89.6809 336.789 94.96 330.462 101.824ZM129.099 135.993C108.951 139.252 82.065 148.663 82.065 152.455C82.065 155.235 95.9677 172.844 104.108 180.376C120.388 195.436 136.148 203.984 158.293 209.761C180.942 215.669 213.778 213.291 234.475 204.245L241.819 201.035L228.033 198.151C192.66 190.751 162.145 171.919 142.771 145.533C138.477 139.683 134.555 134.994 134.057 135.116C133.561 135.237 131.329 135.632 129.099 135.993ZM168.024 145.447C184.465 162.598 204.933 173.869 229.655 179.38L240.197 181.73L227.84 169.981C209.279 152.335 187.978 141.139 165.591 137.263L159.104 136.139L168.024 145.447ZM383.732 139.119C370.783 141.915 358.238 146.834 346.241 153.819C335.513 160.067 311.107 182.319 313.945 183.266C317.185 184.346 338.44 178.622 349.165 173.779C361.754 168.098 372.365 160.871 383.466 150.418C390.447 143.846 396.972 135.893 394.737 136.679C394.482 136.77 389.53 137.867 383.732 139.119ZM412.36 145.337C390.343 175.954 360.882 193.352 315.614 202.467C311.66 203.263 311.697 203.343 317.095 205.615C332.689 212.179 348.429 214.701 369.135 213.952C393.903 213.055 409.074 208.632 428.334 196.695C445.77 185.887 469.691 160.941 469.691 153.563C469.691 149.945 441.302 139.745 425.09 137.539C418.769 136.679 418.442 136.879 412.36 145.337Z" fill="url(#paint0_linear_30_1209)"/>
<defs>
<linearGradient id="paint0_linear_30_1209" x1="405.888" y1="44.7224" x2="247.872" y2="214.261" gradientUnits="userSpaceOnUse">
<stop stop-color="#42A5FF"/>
<stop offset="1" stop-color="#6DDDD0"/>
</linearGradient>
</defs>
</svg>
