<svg width="62" height="34" viewBox="0 0 62 34" fill="none" xmlns="http://www.w3.org/2000/svg">
<path fill-rule="evenodd" clip-rule="evenodd" d="M21.7248 2.1674C21.2957 3.08449 20.7207 4.92023 20.4475 6.24653L19.9502 8.65827L20.6586 9.17626C22.5559 10.5637 24.049 11.9161 25.2668 13.3499L26.6048 14.9251L27.0332 12.9573C27.2688 11.8747 27.8668 10.0061 28.362 8.80434C29.3949 6.29781 29.42 6.40219 27.2147 4.02645C26.0044 2.72242 23.1902 0.5 22.7492 0.5C22.615 0.5 22.154 1.2503 21.7248 2.1674ZM37.5431 1.7701C35.8563 3.01456 34.1205 4.75007 33.2814 6.03105C32.8387 6.7065 32.8452 6.76866 33.5119 8.2545C34.2404 9.87787 35.223 13.3965 35.223 14.3823C35.223 15.3939 35.6809 15.3203 36.5529 14.1689C37.2903 13.1948 38.7135 11.8667 41.2923 9.74578L42.0524 9.12083L41.6025 6.83186C41.1902 4.73246 39.8282 0.914647 39.3967 0.647885C39.297 0.586245 38.4628 1.09128 37.5431 1.7701ZM8.02878 9.28322C8.02878 10.9001 8.76276 14.1468 9.54103 15.972C10.2079 17.5355 10.261 17.5878 11.1846 17.5907C12.4172 17.5943 15.2536 18.2006 17.2007 18.8763C18.0433 19.1687 18.7785 19.3619 18.8347 19.3057C18.8909 19.2495 18.7477 18.7538 18.5164 18.2042C17.8529 16.627 17.0974 13.187 17.0953 11.7333L17.0935 10.4054L15.8216 9.85844C14.0687 9.10426 12.0087 8.59508 9.85105 8.38245L8.02878 8.20296V9.28322ZM49.4378 9.31042C48.3529 9.57744 46.8961 10.0651 46.2004 10.3946C45.0715 10.9291 44.9288 11.091 44.8744 11.8978C44.7467 13.8006 44.1953 16.4822 43.6152 18.0237L43.0112 19.6284L44.7648 19.032C46.4706 18.4518 49.1959 17.9069 51.0089 17.7839C51.7079 17.7362 52.0073 17.5435 52.3816 16.8999C53.0896 15.6829 53.8576 12.8003 54.0427 10.6655L54.2054 8.78777L52.8079 8.80642C52.0392 8.81678 50.5225 9.04365 49.4378 9.31042ZM30.2877 11.8309C29.211 15.2331 29.3778 21.343 30.6287 24.3304L31.0069 25.2338L31.5552 23.4209C32.2171 21.2329 32.6484 17.8924 32.4748 16.2986C32.1402 13.2272 31.3723 10.0827 30.9566 10.0827C30.8929 10.0827 30.592 10.8696 30.2877 11.8309ZM20.3537 14.028C21.2996 18.206 22.7419 20.8959 25.6605 23.9264L27.6643 26.0069L27.4079 24.5843C26.6043 20.1254 24.0817 15.6485 20.996 13.2046L19.9862 12.4049L20.3537 14.028ZM39.666 15.1613C37.5164 17.4943 35.9492 20.3225 35.2147 23.1937C34.9345 24.29 34.705 25.3102 34.705 25.4607C34.705 25.9626 37.5734 22.9254 38.7106 21.2194C39.3278 20.2935 40.1276 18.8079 40.4878 17.9183C41.1615 16.2545 41.8364 13.5017 41.623 13.2883C41.557 13.2222 40.6764 14.0653 39.666 15.1613ZM7.51079 20.6178C4.29332 21.1381 0 22.641 0 23.2466C0 23.6905 2.22009 26.5024 3.51997 27.7051C6.11974 30.1101 8.63637 31.475 12.1727 32.3976C15.7895 33.3411 21.0331 32.9614 24.3381 31.5167L25.5108 31.0042L23.3094 30.5437C17.6607 29.3619 12.7878 26.3547 9.6941 22.1412C9.00829 21.207 8.38204 20.4582 8.30253 20.4777C8.22328 20.4971 7.86691 20.56 7.51079 20.6178ZM13.7266 22.1275C16.352 24.8663 19.6205 26.666 23.5683 27.5461L25.2518 27.9214L23.2785 26.0452C20.3146 23.2274 16.913 21.4396 13.3381 20.8206L12.3022 20.6411L13.7266 22.1275ZM48.1727 21.1169C46.1049 21.5634 44.1016 22.3489 42.1858 23.4644C40.4725 24.462 36.5752 28.0154 37.0285 28.1666C37.5459 28.3391 40.94 27.4251 42.6527 26.6518C44.6631 25.7445 46.3574 24.5905 48.1302 22.9213C49.2449 21.8718 50.2868 20.6017 49.9299 20.7273C49.8893 20.7418 49.0986 20.9169 48.1727 21.1169ZM52.7441 22.1098C49.2283 26.9991 44.5237 29.7773 37.295 31.2329C36.6635 31.36 36.6695 31.3727 37.5314 31.7356C40.0216 32.7837 42.5352 33.1864 45.8417 33.0668C49.7968 32.9236 52.2194 32.2173 55.295 30.3111C58.0794 28.5852 61.8993 24.6016 61.8993 23.4235C61.8993 22.8456 57.3659 21.2168 54.777 20.8646C53.7677 20.7273 53.7154 20.7592 52.7441 22.1098Z" fill="url(#paint0_linear_127_2364)"/>
<defs>
<linearGradient id="paint0_linear_127_2364" x1="51.7107" y1="6.04291" x2="26.4774" y2="33.1161" gradientUnits="userSpaceOnUse">
<stop stop-color="#42A5FF"/>
<stop offset="1" stop-color="#6DDDD0"/>
</linearGradient>
</defs>
</svg>
